<?xml version="1.0"?><svg id="Layer_2" xmlns="http://www.w3.org/2000/svg" viewBox="0 0 32 29.53"><g id="Layer_1-2"><path d="M20.91,14.4l-.85.79-.83-1.84c-.57-.97-.84-1.07-.95-1.16-.4-.36-.76-.69-1.57-.88l-2.26-.22.94-.83,1.07.04c.31.01.62.05.92.14.56.16.81.3,1.17.54.53.36.78.63,1.22,1.14.32.38.6.97.83,1.41l.3.87Z" fill="#231f20"></path><path d="M19.79,11.13l-.64.2c-.48.15-.71.45-1.14.72-.4.24-.89,1.38-.91,1.41l-1.27-.83s.52-.92.85-1.21c.47-.43,1.02-.78,1.62-1.08.44-.22,1.49.79,1.49.79Z" fill="#231f20"></path><path d="M14.33.31C6.03.31,0,6.76,0,15.59s5.54,13.94,13.42,13.94h18.58V0s-14.15.31-17.67.31ZM15.65,21.55c-3.7,0-6.96-1.9-6.96-6.14s2.62-6.6,7.02-6.6c3.94,0,6.75,2.06,6.75,6.48,0,4.18-3.04,6.26-6.81,6.26ZM22,9.15c-1.08,0-1.96-.82-1.96-1.84s.88-1.84,1.96-1.84,1.96.82,1.96,1.84-.88,1.84-1.96,1.84Z" fill="#231f20"></path></g></svg>